<svg xmlns="http://www.w3.org/2000/svg" width="64" height="64" viewBox="0 0 64 64" fill="none">
	<defs>
		<linearGradient id="bg" x1="12" y1="10" x2="52" y2="54" gradientUnits="userSpaceOnUse">
			<stop offset="0" stop-color="#f1ebff" />
			<stop offset="0.55" stop-color="#c8a8ff" />
			<stop offset="1" stop-color="#7a2fff" />
		</linearGradient>
		<radialGradient id="glow" cx="0" cy="0" r="1" gradientUnits="userSpaceOnUse" gradientTransform="translate(24 18) rotate(43.5) scale(33 29)">
			<stop offset="0" stop-color="#ffffff" stop-opacity="0.95" />
			<stop offset="0.45" stop-color="#8fd4ff" stop-opacity="0.45" />
			<stop offset="1" stop-color="#8fd4ff" stop-opacity="0" />
		</radialGradient>
		<filter id="shadow" x="2" y="2" width="60" height="60" color-interpolation-filters="sRGB" filterUnits="userSpaceOnUse">
			<feFlood flood-opacity="0" result="BackgroundImageFix" />
			<feColorMatrix in="SourceAlpha" result="hardAlpha" values="0 0 0 0 0 0 0 0 0 0 0 0 0 0 0 0 0 0 127 0" />
			<feOffset dy="3" />
			<feGaussianBlur stdDeviation="3" />
			<feComposite in2="hardAlpha" operator="out" />
			<feColorMatrix values="0 0 0 0 0.180392 0 0 0 0 0.0470588 0 0 0 0 0.392157 0 0 0 0.28 0" />
			<feBlend in2="BackgroundImageFix" result="effect1_dropShadow" />
			<feBlend in="SourceGraphic" in2="effect1_dropShadow" result="shape" />
		</filter>
		<clipPath id="badgeClip">
			<circle cx="32" cy="32" r="24" />
		</clipPath>
	</defs>

	<g filter="url(#shadow)">
		<circle cx="32" cy="32" r="24" fill="url(#bg)" />
		<circle cx="32" cy="32" r="23" stroke="#ffffff" stroke-opacity="0.4" stroke-width="2" />
		<circle cx="32" cy="32" r="24" fill="url(#glow)" />
	</g>

	<g clip-path="url(#badgeClip)">
		<path
			d="M34.23 50.18c-.7.9-2.16.4-2.16-.74V38.4a2.42 2.42 0 0 0-2.42-2.42H17.46c-.98 0-1.55-1.12-.98-1.91l8.01-11.2c1.15-1.6 0-3.83-1.97-3.83H7.78c-.98 0-1.55-1.11-.98-1.9l10.38-14.3a1.2 1.2 0 0 1 .98-.51h30.96c.99 0 1.55 1.12.99 1.91l-8.01 11.2c-1.15 1.6 0 3.82 1.97 3.82h12.18c1.01 0 1.58 1.17.95 1.96L34.23 50.18Z"
			fill="#5f18d6"
			transform="translate(0 4) scale(0.98)"
		/>
		<path
			d="M34.23 50.18c-.7.9-2.16.4-2.16-.74V38.4a2.42 2.42 0 0 0-2.42-2.42H17.46c-.98 0-1.55-1.12-.98-1.91l8.01-11.2c1.15-1.6 0-3.83-1.97-3.83H7.78c-.98 0-1.55-1.11-.98-1.9l10.38-14.3a1.2 1.2 0 0 1 .98-.51h30.96c.99 0 1.55 1.12.99 1.91l-8.01 11.2c-1.15 1.6 0 3.82 1.97 3.82h12.18c1.01 0 1.58 1.17.95 1.96L34.23 50.18Z"
			fill="#8e47ff"
			transform="translate(0 2)"
		/>
		<ellipse cx="23" cy="18" rx="10" ry="7" fill="#ffffff" fill-opacity="0.45" transform="rotate(-20 23 18)" />
		<ellipse cx="42" cy="41" rx="12" ry="7" fill="#46c1ff" fill-opacity="0.42" transform="rotate(32 42 41)" />
		<path
			d="M21.2 17.2h20.9"
			stroke="#ede6ff"
			stroke-linecap="round"
			stroke-opacity="0.65"
			stroke-width="2.8"
			transform="rotate(36 31.65 17.2)"
		/>
	</g>
</svg>